<?xml version="1.0" encoding="UTF-8"?>
<!-- Generator: visioncortex VTracer 0.6.4 -->
<svg version="1.1" xmlns="http://www.w3.org/2000/svg" width="72" height="36">
<path d="M0 0 C4.74 1.37 7.44 4.5 10.82 7.99 C11.54 8.71 12.27 9.44 13.01 10.18 C14.54 11.72 16.06 13.26 17.57 14.81 C19.89 17.18 22.23 19.53 24.58 21.88 C26.06 23.37 27.53 24.87 29.01 26.36 C29.71 27.07 30.41 27.77 31.14 28.5 C32.1 29.49 32.1 29.49 33.08 30.5 C33.65 31.08 34.22 31.66 34.8 32.26 C36.02 33.87 36.02 33.87 36.02 36.87 C32.7 36.29 31.07 35.3 28.72 32.91 C28.1 32.29 27.48 31.67 26.84 31.03 C25.85 30.02 25.85 30.02 24.84 28.99 C24.16 28.31 23.48 27.62 22.78 26.91 C20.6 24.72 18.43 22.52 16.27 20.31 C14.79 18.82 13.32 17.33 11.84 15.84 C8.22 12.19 4.62 8.54 1.02 4.87 C-1.89 6.18 -3.92 7.58 -6.14 9.85 C-6.74 10.45 -7.33 11.06 -7.93 11.67 C-8.56 12.32 -9.19 12.97 -9.83 13.63 C-11.17 14.99 -12.51 16.35 -13.85 17.71 C-15.96 19.86 -18.06 22.01 -20.16 24.17 C-22.19 26.24 -24.23 28.31 -26.27 30.38 C-26.9 31.03 -27.53 31.68 -28.17 32.35 C-28.76 32.94 -29.35 33.54 -29.95 34.15 C-30.47 34.68 -30.98 35.2 -31.51 35.75 C-32.98 36.87 -32.98 36.87 -35.98 36.87 C-35.4 33.55 -34.38 31.88 -32.03 29.48 C-31.41 28.84 -30.79 28.2 -30.15 27.54 C-29.47 26.86 -28.79 26.18 -28.1 25.48 C-27.06 24.43 -27.06 24.43 -25.99 23.35 C-24.52 21.86 -23.05 20.38 -21.57 18.9 C-19.31 16.63 -17.07 14.34 -14.84 12.05 C-13.4 10.61 -11.97 9.17 -10.53 7.73 C-9.54 6.7 -9.54 6.7 -8.52 5.65 C-5.73 2.91 -3.79 1.11 0 0 Z " fill="#FEFEFE" transform="translate(35.984130859375,-0.873291015625)"/>
</svg>
